<?xml version="1.0" encoding="iso-8859-1"?>
<!-- Generator: Adobe Illustrator 19.0.0, SVG Export Plug-In . SVG Version: 6.00 Build 0)  -->
<svg version="1.1" id="Capa_1" xmlns="http://www.w3.org/2000/svg" xmlns:xlink="http://www.w3.org/1999/xlink" x="0px" y="0px"
	 viewBox="0 0 512 512" style="enable-background:new 0 0 512 512;" xml:space="preserve">
<g>
	<g>
		<path d="M256,0C114.848,0,0,114.848,0,256s114.848,256,256,256s256-114.848,256-256S397.152,0,256,0z M256,480
			C132.48,480,32,379.488,32,256C32,132.48,132.48,32,256,32c123.488,0,224,100.48,224,224C480,379.488,379.488,480,256,480z"/>
	</g>
</g>
<g>
	<g>
		<path d="M411.296,100.672c-5.312-5.312-13.568-6.176-19.904-2.176l-176,112c-1.952,1.28-3.616,2.944-4.896,4.928l-112,176
			c-4.032,6.336-3.136,14.592,2.176,19.904C103.776,414.4,107.872,416,112,416c2.976,0,5.952-0.8,8.608-2.496l176-112
			c1.952-1.248,3.648-2.944,4.864-4.928l112-176C417.504,114.24,416.608,105.984,411.296,100.672z M276.416,276.416L164.16,347.84
			l71.424-112.256L347.84,164.16L276.416,276.416z"/>
	</g>
</g>
<g>
	<g>
		<path d="M299.296,276.704l-64-64c-6.24-6.24-16.384-6.24-22.624,0c-6.24,6.24-6.24,16.384,0,22.624l64,64
			C279.808,302.432,283.904,304,288,304s8.192-1.568,11.296-4.672C305.536,293.088,305.536,282.944,299.296,276.704z"/>
	</g>
</g>
<g>
</g>
<g>
</g>
<g>
</g>
<g>
</g>
<g>
</g>
<g>
</g>
<g>
</g>
<g>
</g>
<g>
</g>
<g>
</g>
<g>
</g>
<g>
</g>
<g>
</g>
<g>
</g>
<g>
</g>
</svg>
