<?xml version="1.0"?>
<svg xmlns="http://www.w3.org/2000/svg" xmlns:xlink="http://www.w3.org/1999/xlink" xmlns:svgjs="http://svgjs.com/svgjs" version="1.1" width="512" height="512" x="0" y="0" viewBox="0 0 512 512" style="enable-background:new 0 0 512 512" xml:space="preserve" class=""><g><linearGradient xmlns="http://www.w3.org/2000/svg" id="SVGID_1_" gradientUnits="userSpaceOnUse" x1="256" x2="256" y1="451" y2="61"><stop stop-opacity="1" stop-color="#fd5900" offset="0"/><stop stop-opacity="1" stop-color="#36b221" offset="0"/><stop stop-opacity="1" stop-color="#5bfb40" offset="1"/></linearGradient><linearGradient xmlns="http://www.w3.org/2000/svg" id="SVGID_2_" gradientUnits="userSpaceOnUse" x1="286" x2="286" y1="374.915" y2="137.091"><stop stop-opacity="1" stop-color="#ffe59a" offset="0"/><stop stop-opacity="1" stop-color="#fdfdfd" offset="0"/></linearGradient><g xmlns="http://www.w3.org/2000/svg"><g><g><path d="m437 61h-362c-41.367 0-75 33.647-75 75v240c0 41.353 33.633 75 75 75h362c41.367 0 75-33.647 75-75v-240c0-41.353-33.633-75-75-75z" fill="url(#SVGID_1_)" data-original="url(#SVGID_1_)" style=""/></g></g><g><g><path d="m383.5 243.007-180-103.916c-4.629-2.666-10.371-2.666-15 0-4.629 2.681-7.5 7.632-7.5 12.993v207.832c0 5.361 2.871 10.313 7.5 12.993 4.676 2.693 10.388 2.656 15 0l180-103.916c4.629-2.681 7.5-7.632 7.5-12.993s-2.871-10.312-7.5-12.993z" fill="url(#SVGID_2_)" data-original="url(#SVGID_2_)" style=""/></g></g></g><script/></g></svg>
